<svg xmlns="http://www.w3.org/2000/svg" width="420" height="280" viewBox="0 0 420 280" role="img" aria-label="LeetCode Trainer">
  <rect width="420" height="280" fill="#f4f6f8"/>
  <rect x="20" y="20" width="380" height="240" rx="14" fill="#ffffff" stroke="#d6dbe1" stroke-width="2"/>

  <!-- Window chrome -->
  <rect x="20" y="20" width="380" height="30" rx="14" fill="#eef1f5"/>
  <rect x="20" y="36" width="380" height="14" fill="#eef1f5"/>
  <circle cx="40" cy="35" r="4" fill="#ff5f57"/>
  <circle cx="54" cy="35" r="4" fill="#febc2e"/>
  <circle cx="68" cy="35" r="4" fill="#28c840"/>
  <text x="210" y="39" text-anchor="middle" font-family="Arial, Helvetica, sans-serif" font-size="11" fill="#6b7480">Python 3 &#183; local judge</text>

  <!-- Problem list -->
  <rect x="36" y="62" width="94" height="182" rx="6" fill="#f7f8fa" stroke="#e2e6ec" stroke-width="1"/>
  <rect x="46" y="74" width="74" height="9" rx="3" fill="#2c6fdb"/>
  <rect x="46" y="90" width="60" height="7" rx="3" fill="#c7ced7"/>
  <rect x="46" y="104" width="68" height="7" rx="3" fill="#c7ced7"/>
  <rect x="46" y="118" width="52" height="7" rx="3" fill="#c7ced7"/>
  <rect x="46" y="132" width="64" height="7" rx="3" fill="#c7ced7"/>
  <rect x="46" y="146" width="44" height="7" rx="3" fill="#c7ced7"/>

  <!-- Code panel -->
  <rect x="146" y="62" width="238" height="182" rx="6" fill="#1e1e1e"/>
  <rect x="158" y="76" width="70" height="7" rx="3" fill="#569cd6"/>
  <rect x="158" y="90" width="110" height="7" rx="3" fill="#9cdcfe"/>
  <rect x="172" y="104" width="88" height="7" rx="3" fill="#ce9178"/>
  <rect x="186" y="118" width="120" height="7" rx="3" fill="#dcdcaa"/>
  <rect x="186" y="132" width="96" height="7" rx="3" fill="#dcdcaa"/>
  <rect x="200" y="146" width="74" height="7" rx="3" fill="#b5cea8"/>
  <rect x="172" y="160" width="102" height="7" rx="3" fill="#c586c0"/>
  <rect x="158" y="174" width="66" height="7" rx="3" fill="#569cd6"/>

  <!-- Passed badge -->
  <rect x="248" y="196" width="124" height="26" rx="13" fill="#17954a"/>
  <text x="310" y="213" text-anchor="middle" font-family="Arial, Helvetica, sans-serif" font-size="12" font-weight="bold" fill="#ffffff">5/5 tests passed</text>
</svg>
